<svg xmlns="http://www.w3.org/2000/svg" width="100" height="100" viewBox="0 0 100 100" aria-hidden="true"><defs><radialGradient id="c6l" cx="0.38" cy="0.32" r="0.75" fx="0.32" fy="0.26"><stop offset="0" stop-color="#EEFFC2"></stop><stop offset="0.45" stop-color="#A7FC00"></stop><stop offset="1" stop-color="#5E9900"></stop></radialGradient><radialGradient id="c6v" cx="0.38" cy="0.32" r="0.75" fx="0.32" fy="0.26"><stop offset="0" stop-color="#C9AEFF"></stop><stop offset="0.45" stop-color="#6600FF"></stop><stop offset="1" stop-color="#33008A"></stop></radialGradient><radialGradient id="c6i" cx="0.38" cy="0.32" r="0.75" fx="0.32" fy="0.26"><stop offset="0" stop-color="#F6F0FF"></stop><stop offset="0.45" stop-color="#C6A8FF"></stop><stop offset="1" stop-color="#7A4DE0"></stop></radialGradient></defs><path d="M50 6 C80 22 92 56 70 84 C62 94 50 96 50 96 C50 96 38 94 30 84 C8 56 20 22 50 6 Z" fill="url(#c6l)"></path><path d="M50 20 L50 92" stroke="#6FAE00" stroke-width="4" stroke-linecap="round"></path><path d="M50 44 L66 34 M50 62 L68 52 M50 52 L34 42 M50 72 L33 62" stroke="#7FBF00" stroke-width="3" stroke-linecap="round"></path><ellipse cx="38" cy="30" rx="7" ry="12" fill="#ffffff" opacity="0.5" transform="rotate(30 38 30)"></ellipse></svg>